<svg xmlns="http://www.w3.org/2000/svg" fill="none" stroke-linecap="square" stroke-miterlimit="10" viewBox="0 0 523.199 540"><clipPath id="a"><path d="M0 0h523.2v540H0V0z"/></clipPath><g clip-path="url(#a)"><path fill="#fff" fill-rule="evenodd" d="M0 0h523.2v540H0z"/><path fill="#f1c232" fill-rule="evenodd" d="M9.478 353.22H513.73v58.961H9.478z"/><path stroke="#595959" stroke-linecap="butt" stroke-linejoin="round" d="M9.478 353.22H513.73v58.961H9.478z"/><path fill="#000" d="m232.624 384.572 3 .937q-.688 2.5-2.297 3.719-1.594 1.219-4.047 1.219-3.047 0-5-2.078-1.953-2.078-1.953-5.688 0-3.812 1.969-5.922t5.172-2.11q2.797 0 4.547 1.657 1.046.985 1.562 2.813l-3.047.734q-.281-1.187-1.14-1.875-.844-.687-2.079-.687-1.703 0-2.765 1.218-1.047 1.219-1.047 3.938 0 2.906 1.031 4.14 1.047 1.22 2.719 1.22 1.234 0 2.11-.782.89-.781 1.265-2.453zm8.543-9.656v5.609q1.406-1.656 3.375-1.656 1.016 0 1.828.375.813.375 1.219.968.406.579.562 1.282.157.703.157 2.203v6.484h-2.922v-5.844q0-1.734-.172-2.203-.172-.468-.594-.75-.422-.281-1.047-.281-.734 0-1.312.36-.563.359-.828 1.078-.266.703-.266 2.093v5.547h-2.937v-15.265h2.937zm12.903 15.265h-2.922V379.12h2.719v1.578q.703-1.125 1.25-1.469.562-.36 1.266-.36 1 0 1.937.563l-.906 2.547q-.75-.484-1.375-.484t-1.047.343q-.422.329-.672 1.22-.25.89-.25 3.702v3.422zm4.831-5.687q0-1.453.72-2.813.718-1.375 2.03-2.094 1.313-.718 2.938-.718 2.516 0 4.11 1.64 1.609 1.625 1.609 4.11 0 2.515-1.625 4.172-1.61 1.64-4.063 1.64-1.531 0-2.906-.687-1.375-.688-2.094-2.016-.719-1.328-.719-3.234zm3 .156q0 1.64.782 2.516.78.875 1.922.875 1.14 0 1.921-.875.782-.875.782-2.532 0-1.625-.782-2.5-.78-.875-1.921-.875t-1.922.875q-.782.875-.782 2.516zm10.482-5.531h2.703v1.515q1.437-1.765 3.437-1.765 1.063 0 1.844.437.781.438 1.281 1.328.735-.89 1.578-1.328.844-.437 1.797-.437 1.219 0 2.063.5.844.484 1.265 1.453.297.703.297 2.281v7.078h-2.922v-6.328q0-1.64-.312-2.125-.406-.625-1.25-.625-.61 0-1.156.375-.532.375-.782 1.11-.234.718-.234 2.28v5.313h-2.922v-6.062q0-1.61-.156-2.078-.156-.47-.484-.704-.329-.234-.891-.234-.672 0-1.219.375-.547.36-.781 1.047-.234.687-.234 2.281v5.375h-2.922V379.12zm25.589 7.547 2.906.484q-.547 1.61-1.766 2.453-1.218.828-3.03.828-2.891 0-4.282-1.89-1.094-1.5-1.094-3.813 0-2.75 1.438-4.297 1.437-1.562 3.64-1.562 2.469 0 3.89 1.64 1.423 1.625 1.36 4.985h-7.328q.031 1.297.703 2.03.688.72 1.703.72.688 0 1.157-.375.468-.375.703-1.203zm.172-2.97q-.032-1.265-.657-1.921-.625-.672-1.53-.672-.954 0-1.579.703t-.61 1.89h4.376z"/><path fill="#d9ead3" fill-rule="evenodd" d="M9.478 412.197H513.73V526.78H9.478z"/><path stroke="#595959" stroke-linecap="butt" stroke-linejoin="round" d="M9.478 412.197H513.73V526.78H9.478z"/><path fill="#000" d="M204.32 452.049v4.922q1.234-1.453 2.953-1.453.89 0 1.593.328.72.328 1.078.843.36.5.485 1.125.14.61.14 1.922v5.672h-2.562v-5.11q0-1.515-.156-1.921-.14-.422-.516-.656-.36-.25-.906-.25-.64 0-1.14.312-.5.313-.735.938t-.235 1.843v4.844h-2.562v-13.36h2.562zm14.442 10.281 2.547.422q-.484 1.406-1.547 2.14-1.062.735-2.656.735-2.516 0-3.734-1.656-.953-1.313-.953-3.328 0-2.407 1.25-3.766 1.265-1.36 3.187-1.36 2.156 0 3.406 1.422t1.188 4.375h-6.406q.03 1.141.609 1.782.594.625 1.484.625.594 0 1-.328.422-.329.625-1.063zm.157-2.594q-.032-1.11-.579-1.687-.546-.578-1.328-.578-.843 0-1.39.61-.547.608-.532 1.655h3.829zm6.532-1.047-2.329-.421q.407-1.407 1.36-2.079.953-.671 2.844-.671 1.703 0 2.546.406.844.406 1.172 1.031.344.625.344 2.281l-.016 3q0 1.266.11 1.875.125.61.469 1.297h-2.532q-.11-.25-.25-.75-.062-.234-.093-.312-.657.64-1.407.968-.734.313-1.593.313-1.485 0-2.344-.813-.86-.812-.86-2.046 0-.829.391-1.47.39-.64 1.094-.968.703-.344 2.031-.61 1.797-.327 2.484-.624v-.25q0-.75-.359-1.063-.36-.312-1.375-.312-.687 0-1.078.28-.375.267-.61.938zm3.421 2.079q-.484.156-1.562.39-1.063.219-1.39.438-.5.36-.5.906 0 .531.406.937.406.391 1.015.391.703 0 1.328-.469.469-.343.61-.843.093-.329.093-1.25v-.5zm13.923 4.64h-2.39v-1.422q-.594.828-1.407 1.235-.797.406-1.61.406-1.671 0-2.859-1.344-1.187-1.344-1.187-3.75 0-2.453 1.156-3.734 1.156-1.281 2.922-1.281 1.625 0 2.813 1.343v-4.812h2.562v13.36zm-6.844-5.047q0 1.547.438 2.235.61 1.015 1.719 1.015.89 0 1.5-.75.625-.765.625-2.25 0-1.672-.61-2.406-.594-.734-1.531-.734-.906 0-1.531.734-.61.719-.61 2.156zm8.568 1.313v-2.188q.672-.03 1-.187.344-.172.578-.563.25-.39.344-.968.078-.438.078-1.532 0-1.765.156-2.453.172-.703.594-1.125.422-.422 1.25-.672.547-.156 1.75-.156h.484v2.172q-1.015 0-1.312.125-.281.11-.422.344-.125.218-.125.797 0 .562-.078 2.171-.047.907-.25 1.47-.188.546-.484.921-.297.36-.907.75.547.313.875.734.344.407.532 1 .187.594.234 1.579.062 1.515.062 1.937 0 .594.141.828.156.25.453.36.297.125 1.281.125v2.187h-.484q-1.234 0-1.89-.203-.657-.188-1.11-.64-.453-.454-.61-1.126-.14-.672-.14-2.11 0-1.67-.156-2.17-.188-.735-.594-1.048-.406-.312-1.25-.36zm6.932-5.938h1.422v-.734q0-1.219.25-1.813.266-.609.953-.984.703-.375 1.782-.375 1.093 0 2.14.328l-.36 1.781q-.609-.14-1.171-.14-.547 0-.797.265-.234.25-.234.985v.687h1.906v2.016h-1.906v7.656h-2.563v-7.656h-1.422v-2.016zm13.697 9.672v-1.453q-.53.781-1.39 1.234-.86.438-1.813.438-.969 0-1.75-.422-.765-.437-1.125-1.203-.344-.781-.344-2.14v-6.126h2.563v4.438q0 2.047.14 2.515.141.454.516.72.375.265.953.265.657 0 1.172-.36.516-.359.703-.89.203-.531.203-2.61v-4.078h2.547v9.672h-2.375zm5.037 0v-13.36h2.562v13.36h-2.562zm5.12-2.562h2.548v1.828q0 1.11-.188 1.75-.187.656-.719 1.156-.53.516-1.359.813l-.5-1.063q.781-.25 1.11-.703.328-.438.343-1.219h-1.234v-2.562zm5.247 2.562v-13.36h2.562v13.36h-2.562zm10.777-3.078 2.546.422q-.484 1.406-1.546 2.14-1.063.735-2.657.735-2.515 0-3.734-1.656-.953-1.313-.953-3.328 0-2.407 1.25-3.766 1.265-1.36 3.187-1.36 2.157 0 3.407 1.422t1.187 4.375h-6.406q.031 1.141.61 1.782.593.625 1.484.625.593 0 1-.328.421-.329.625-1.063zm.156-2.594q-.031-1.11-.578-1.687-.547-.578-1.328-.578-.844 0-1.391.61-.547.608-.531 1.655h3.828zm3.72 2.907 2.562-.391q.172.75.672 1.14.5.391 1.406.391.984 0 1.484-.375.344-.25.344-.672 0-.297-.187-.484-.188-.188-.86-.344-3.094-.687-3.922-1.25-1.14-.781-1.14-2.172 0-1.265.984-2.11 1-.858 3.078-.858 1.985 0 2.953.656.97.64 1.328 1.906l-2.406.438q-.156-.563-.594-.86-.421-.297-1.234-.297-1 0-1.437.282-.297.203-.297.515 0 .266.25.469.343.25 2.39.719 2.047.453 2.86 1.14.797.672.797 1.89 0 1.345-1.11 2.298-1.11.953-3.281.953-1.984 0-3.14-.797-1.141-.812-1.5-2.187zm10.375 0 2.563-.391q.171.75.671 1.14.5.391 1.407.391.984 0 1.484-.375.344-.25.344-.672 0-.297-.188-.484-.187-.188-.86-.344-3.093-.687-3.921-1.25-1.14-.781-1.14-2.172 0-1.265.984-2.11 1-.858 3.078-.858 1.984 0 2.953.656.969.64 1.328 1.906l-2.406.438q-.156-.563-.594-.86-.422-.297-1.234-.297-1 0-1.438.282-.297.203-.297.515 0 .266.25.469.344.25 2.391.719 2.047.453 2.86 1.14.796.672.796 1.89 0 1.345-1.11 2.298-1.108.953-3.28.953-1.985 0-3.141-.797-1.14-.812-1.5-2.187zm16.579-.97q-.672.032-1.016.204-.328.156-.578.547-.234.39-.328.969-.078.437-.078 1.515 0 1.766-.156 2.469-.157.703-.594 1.125-.422.422-1.25.672-.547.156-1.75.156h-.485v-2.187q.985 0 1.282-.125.297-.11.437-.344.14-.235.14-.797.016-.547.079-2.125.047-.938.25-1.5.203-.578.531-.969.344-.406.86-.703-.672-.437-.985-.86-.437-.593-.594-1.53-.093-.641-.14-2.797 0-.688-.125-.907-.11-.234-.406-.36-.297-.124-1.329-.124v-2.172h.485q1.234 0 1.89.188.657.187 1.094.656.453.453.61 1.125.156.672.156 2.11 0 1.671.14 2.171.204.734.61 1.047.406.312 1.25.36v2.187zM184.806 484.643l2.563-.391q.172.75.672 1.14.5.391 1.406.391.984 0 1.484-.375.344-.25.344-.672 0-.297-.187-.484-.188-.188-.86-.344-3.094-.687-3.922-1.25-1.14-.781-1.14-2.172 0-1.265.984-2.11 1-.858 3.078-.858 1.985 0 2.953.656.969.64 1.328 1.906l-2.406.438q-.156-.563-.594-.86-.421-.297-1.234-.297-1 0-1.437.282-.297.203-.297.515 0 .266.25.469.343.25 2.39.719 2.047.453 2.86 1.14.797.672.797 1.89 0 1.345-1.11 2.298-1.11.953-3.281.953-1.984 0-3.14-.797-1.141-.812-1.5-2.187zm13.83-10.594v4.922q1.234-1.453 2.952-1.453.89 0 1.594.328.719.328 1.078.843.36.5.485 1.125.14.61.14 1.922v5.672h-2.562v-5.11q0-1.515-.157-1.921-.14-.422-.515-.656-.36-.25-.906-.25-.641 0-1.141.312-.5.313-.734.938-.235.625-.235 1.843v4.844h-2.562v-13.36h2.562zm10.754 6.64-2.328-.421q.407-1.407 1.36-2.079.953-.671 2.843-.671 1.704 0 2.547.406.844.406 1.172 1.031.344.625.344 2.281l-.016 3q0 1.266.11 1.875.125.61.468 1.297h-2.53q-.11-.25-.25-.75-.063-.234-.095-.312-.656.64-1.406.968-.734.313-1.594.313-1.484 0-2.343-.813-.86-.812-.86-2.046 0-.829.391-1.47.39-.64 1.094-.968.703-.344 2.031-.61 1.797-.327 2.484-.624v-.25q0-.75-.359-1.063-.36-.312-1.375-.312-.688 0-1.078.28-.375.267-.61.938zm3.422 2.079q-.484.156-1.562.39-1.063.219-1.39.438-.5.36-.5.906 0 .531.405.937.407.391 1.016.391.703 0 1.328-.469.469-.343.61-.843.093-.329.093-1.25v-.5zm7.501 4.64h-2.562v-9.672h2.375v1.375q.609-.984 1.093-1.28.485-.313 1.11-.313.875 0 1.687.484l-.797 2.234q-.64-.422-1.203-.422-.531 0-.906.297t-.594 1.078q-.203.766-.203 3.235v2.984zm10.401-3.078 2.547.422q-.485 1.406-1.547 2.14-1.063.735-2.656.735-2.516 0-3.735-1.656-.953-1.313-.953-3.328 0-2.407 1.25-3.766 1.266-1.36 3.188-1.36 2.156 0 3.406 1.422t1.187 4.375h-6.406q.031 1.141.61 1.782.593.625 1.484.625.594 0 1-.328.422-.329.625-1.063zm.156-2.594q-.031-1.11-.578-1.687-.547-.578-1.328-.578-.844 0-1.39.61-.548.608-.532 1.655h3.828zm13.5 5.672h-2.39v-1.422q-.593.828-1.406 1.235-.797.406-1.61.406-1.671 0-2.859-1.344-1.187-1.344-1.187-3.75 0-2.453 1.156-3.734 1.156-1.281 2.922-1.281 1.625 0 2.812 1.343v-4.812h2.563v13.36zm-6.843-5.047q0 1.547.438 2.235.61 1.015 1.718 1.015.891 0 1.5-.75.625-.765.625-2.25 0-1.672-.609-2.406-.594-.734-1.531-.734-.906 0-1.531.734-.61.719-.61 2.156zm22.986-1.765-2.532.453q-.125-.75-.578-1.125-.453-.39-1.172-.39-.953 0-1.53.655-.563.657-.563 2.204 0 1.734.578 2.437.578.703 1.547.703.734 0 1.203-.406.469-.422.656-1.422l2.516.422q-.39 1.734-1.516 2.625-1.11.875-2.969.875-2.125 0-3.39-1.328-1.25-1.344-1.25-3.719 0-2.39 1.265-3.719 1.266-1.343 3.422-1.343 1.766 0 2.797.765 1.047.75 1.516 2.313zm1.344 1.843q0-1.28.625-2.468.625-1.203 1.781-1.828 1.157-.625 2.579-.625 2.187 0 3.593 1.421 1.407 1.422 1.407 3.61 0 2.187-1.422 3.64-1.422 1.438-3.563 1.438-1.328 0-2.547-.594-1.203-.61-1.828-1.765-.625-1.172-.625-2.829zm2.625.125q0 1.454.672 2.22.688.75 1.688.75t1.671-.75q.688-.766.688-2.235 0-1.422-.688-2.188-.671-.765-1.671-.765t-1.688.765q-.672.766-.672 2.203zm18.24 4.844h-2.39v-1.422q-.594.828-1.407 1.235-.797.406-1.61.406-1.671 0-2.859-1.344-1.187-1.344-1.187-3.75 0-2.453 1.156-3.734 1.156-1.281 2.922-1.281 1.625 0 2.812 1.343v-4.812h2.563v13.36zm-6.844-5.047q0 1.547.438 2.235.61 1.015 1.718 1.015.891 0 1.5-.75.625-.765.625-2.25 0-1.672-.609-2.406-.594-.734-1.531-.734-.906 0-1.531.734-.61.719-.61 2.156zm14.959 1.97 2.547.42q-.485 1.407-1.547 2.142-1.063.734-2.657.734-2.515 0-3.734-1.656-.953-1.313-.953-3.328 0-2.407 1.25-3.766 1.266-1.36 3.187-1.36 2.157 0 3.407 1.422t1.187 4.375h-6.406q.031 1.141.61 1.782.593.625 1.484.625.593 0 1-.328.422-.329.625-1.063zm.156-2.595q-.031-1.11-.578-1.687-.547-.578-1.328-.578-.844 0-1.391.61-.547.608-.531 1.655h3.828zm9.73-4h2.391v1.422q.47-.734 1.25-1.187.797-.453 1.766-.453 1.688 0 2.86 1.328 1.171 1.312 1.171 3.672 0 2.421-1.187 3.765-1.188 1.344-2.86 1.344-.812 0-1.468-.313-.64-.328-1.36-1.093v4.875h-2.562v-13.36zm2.532 4.672q0 1.625.64 2.406.657.782 1.579.782.906 0 1.484-.72.594-.718.594-2.343 0-1.515-.61-2.25-.609-.75-1.515-.75-.938 0-1.563.735-.609.718-.609 2.14zm10.85-1.719-2.329-.421q.406-1.407 1.36-2.079.953-.671 2.843-.671 1.703 0 2.547.406.844.406 1.172 1.031.344.625.344 2.281l-.016 3q0 1.266.11 1.875.124.61.468 1.297h-2.531q-.11-.25-.25-.75-.063-.234-.094-.312-.656.64-1.406.968-.734.313-1.594.313-1.484 0-2.344-.813-.859-.812-.859-2.046 0-.829.39-1.47.391-.64 1.094-.968.704-.344 2.032-.61 1.797-.327 2.484-.624v-.25q0-.75-.36-1.063-.359-.312-1.374-.312-.688 0-1.078.28-.375.267-.61.938zm3.421 2.079q-.484.156-1.562.39-1.063.219-1.391.438-.5.36-.5.906 0 .531.406.937.406.391 1.016.391.703 0 1.328-.469.469-.343.61-.843.093-.329.093-1.25v-.5zm9.485-5.032v2.032h-1.75v3.906q0 1.187.047 1.39.047.188.219.313.187.125.437.125.36 0 1.032-.25l.218 2q-.89.375-2.015.375-.703 0-1.266-.234-.547-.235-.812-.594-.25-.375-.344-1-.094-.453-.094-1.813v-4.218h-1.172v-2.032h1.172v-1.922l2.578-1.5v3.422h1.75zm4.322-3.687v4.922q1.235-1.453 2.953-1.453.89 0 1.594.328.719.328 1.078.843.36.5.485 1.125.14.61.14 1.922v5.672h-2.562v-5.11q0-1.515-.157-1.921-.14-.422-.515-.656-.36-.25-.906-.25-.641 0-1.141.312-.5.313-.734.938-.235.625-.235 1.843v4.844h-2.562v-13.36h2.562z"/><path fill="none" d="M261.594 232.893v74.236"/><path stroke="#595959" stroke-linecap="butt" stroke-linejoin="round" stroke-width="4" d="M261.594 232.893v50.236"/><path fill="#595959" fill-rule="evenodd" stroke="#595959" stroke-linecap="butt" stroke-width="4" d="m254.987 283.13 6.607 18.152 6.607-18.153z"/><path fill="#f1c232" fill-rule="evenodd" d="M9.474 13.22h504.225v58.955H9.474z"/><path stroke="#595959" stroke-linecap="butt" stroke-linejoin="round" d="M9.474 13.22h504.225v58.955H9.474z"/><path fill="#000" d="m232.606 44.568 3 .938q-.687 2.5-2.296 3.718-1.594 1.22-4.047 1.22-3.047 0-5-2.079-1.953-2.078-1.953-5.688 0-3.812 1.968-5.921 1.969-2.11 5.172-2.11 2.797 0 4.547 1.656 1.047.985 1.563 2.813l-3.047.734q-.282-1.187-1.141-1.875-.844-.687-2.078-.687-1.703 0-2.766 1.219-1.047 1.218-1.047 3.937 0 2.906 1.032 4.14 1.047 1.22 2.718 1.22 1.235 0 2.11-.782.89-.781 1.265-2.453zm8.544-9.656v5.61q1.406-1.657 3.375-1.657 1.015 0 1.828.375.812.375 1.218.969.407.578.563 1.281.156.703.156 2.203v6.484h-2.922v-5.843q0-1.735-.172-2.203-.171-.47-.593-.75-.422-.282-1.047-.282-.735 0-1.313.36-.562.36-.828 1.078-.265.703-.265 2.094v5.546h-2.938V34.912h2.938zm12.903 15.265h-2.922V39.115h2.718v1.578q.704-1.125 1.25-1.469.563-.359 1.266-.359 1 0 1.938.562l-.907 2.547q-.75-.484-1.375-.484t-1.047.344q-.421.328-.671 1.218-.25.891-.25 3.704v3.421zm4.83-5.687q0-1.453.72-2.813.718-1.375 2.03-2.093 1.313-.719 2.938-.719 2.516 0 4.11 1.64 1.61 1.626 1.61 4.11 0 2.516-1.626 4.172-1.61 1.64-4.062 1.64-1.532 0-2.907-.687-1.375-.688-2.093-2.016-.72-1.328-.72-3.234zm3 .156q0 1.64.782 2.516.781.875 1.922.875 1.14 0 1.922-.875.781-.875.781-2.531 0-1.625-.781-2.5t-1.922-.875q-1.14 0-1.922.875-.781.875-.781 2.515zm10.482-5.531h2.703v1.516q1.438-1.766 3.438-1.766 1.062 0 1.843.437.782.438 1.282 1.329.734-.891 1.578-1.329.844-.437 1.797-.437 1.218 0 2.062.5.844.484 1.266 1.453.297.703.297 2.281v7.078h-2.922V43.85q0-1.64-.313-2.125-.406-.625-1.25-.625-.609 0-1.156.375-.531.375-.781 1.11-.235.718-.235 2.281v5.312h-2.921v-6.062q0-1.61-.157-2.078-.156-.469-.484-.703-.328-.235-.89-.235-.673 0-1.22.375-.546.36-.78 1.047-.235.688-.235 2.281v5.375h-2.922V39.115zm25.59 7.547 2.905.484q-.546 1.61-1.765 2.453-1.219.828-3.031.828-2.891 0-4.282-1.89-1.093-1.5-1.093-3.813 0-2.75 1.437-4.297 1.438-1.562 3.64-1.562 2.47 0 3.891 1.64 1.422 1.626 1.36 4.985h-7.328q.03 1.297.703 2.031.687.719 1.703.719.687 0 1.156-.375.469-.375.703-1.203zm.171-2.969q-.031-1.266-.656-1.922-.625-.672-1.531-.672-.954 0-1.579.703-.625.704-.609 1.891h4.375z"/><path fill="#ffe599" fill-rule="evenodd" d="M9.474 72.195h253.008v114.582H9.474z"/><path stroke="#595959" stroke-linecap="butt" stroke-linejoin="round" d="M9.474 72.195h253.008v114.582H9.474z"/><path fill="#000" d="M106.701 112.046v4.922q1.234-1.453 2.953-1.453.89 0 1.594.328.719.328 1.078.844.36.5.484 1.125.141.61.141 1.922v5.672h-2.563v-5.11q0-1.515-.156-1.922-.14-.421-.515-.656-.36-.25-.907-.25-.64 0-1.14.313-.5.312-.735.937-.234.625-.234 1.844v4.844h-2.563v-13.36h2.563zm14.443 10.282 2.547.421q-.485 1.407-1.547 2.141-1.063.734-2.656.734-2.516 0-3.735-1.656-.953-1.312-.953-3.328 0-2.406 1.25-3.766 1.266-1.359 3.188-1.359 2.156 0 3.406 1.422t1.187 4.375h-6.406q.031 1.14.61 1.781.593.625 1.484.625.594 0 1-.328.422-.328.625-1.062zm.156-2.594q-.031-1.11-.578-1.688-.547-.578-1.328-.578-.844 0-1.39.61-.548.609-.532 1.656h3.828zm6.532-1.047-2.328-.422q.406-1.406 1.36-2.078.952-.672 2.843-.672 1.703 0 2.547.406.844.407 1.172 1.032.344.625.344 2.28l-.016 3q0 1.266.11 1.876.124.61.468 1.297h-2.531q-.11-.25-.25-.75-.063-.235-.094-.313-.656.64-1.406.969-.735.312-1.594.312-1.484 0-2.344-.812-.86-.813-.86-2.047 0-.828.392-1.469.39-.64 1.093-.968.703-.344 2.032-.61 1.796-.328 2.484-.625v-.25q0-.75-.36-1.062-.359-.313-1.374-.313-.688 0-1.079.281-.375.266-.609.938zm3.422 2.078q-.484.156-1.563.39-1.062.22-1.39.438-.5.36-.5.906 0 .532.406.938.406.39 1.016.39.703 0 1.328-.468.469-.344.61-.844.093-.328.093-1.25v-.5zm13.923 4.64h-2.391v-1.421q-.594.828-1.406 1.234-.797.406-1.61.406-1.672 0-2.86-1.343-1.187-1.344-1.187-3.75 0-2.453 1.157-3.735 1.156-1.281 2.922-1.281 1.625 0 2.812 1.344v-4.813h2.563v13.36zm-6.844-5.046q0 1.547.437 2.234.61 1.016 1.719 1.016.89 0 1.5-.75.625-.766.625-2.25 0-1.672-.61-2.406-.593-.735-1.53-.735-.907 0-1.532.735-.61.718-.61 2.156zm8.24-4.625h1.421v-.735q0-1.218.25-1.812.266-.61.953-.984.704-.375 1.782-.375 1.093 0 2.14.328l-.359 1.78q-.61-.14-1.172-.14-.547 0-.797.266-.234.25-.234.984v.688h1.906v2.015h-1.906v7.657h-2.563v-7.657h-1.422v-2.015zm13.697 9.672v-1.453q-.532.78-1.391 1.234-.86.437-1.813.437-.968 0-1.75-.421-.765-.438-1.125-1.204-.343-.78-.343-2.14v-6.125h2.562v4.437q0 2.047.14 2.516.141.453.516.719.375.265.954.265.656 0 1.171-.36.516-.358.704-.89.203-.531.203-2.61v-4.077h2.547v9.672h-2.375zm5.036 0v-13.36h2.563v13.36h-2.563zM101.706 140.593l-2.532.453q-.125-.75-.578-1.125-.453-.39-1.172-.39-.953 0-1.53.656-.563.656-.563 2.203 0 1.734.578 2.438.578.703 1.547.703.734 0 1.203-.407.469-.421.656-1.421l2.516.421q-.39 1.735-1.516 2.625-1.11.875-2.969.875-2.125 0-3.39-1.328-1.25-1.343-1.25-3.718 0-2.391 1.265-3.72 1.266-1.343 3.422-1.343 1.766 0 2.797.766 1.047.75 1.516 2.312zm1.344 1.844q0-1.281.625-2.469.625-1.203 1.781-1.828 1.157-.625 2.579-.625 2.187 0 3.593 1.422 1.407 1.422 1.407 3.61 0 2.187-1.422 3.64-1.422 1.437-3.563 1.437-1.328 0-2.547-.593-1.203-.61-1.828-1.766-.625-1.172-.625-2.828zm2.625.125q0 1.453.672 2.219.688.75 1.688.75t1.671-.75q.688-.766.688-2.235 0-1.422-.688-2.187-.671-.766-1.671-.766t-1.688.766q-.672.765-.672 2.203zm18.24 4.844h-2.39v-1.422q-.594.828-1.407 1.234-.797.406-1.61.406-1.671 0-2.859-1.343-1.187-1.344-1.187-3.75 0-2.453 1.156-3.735 1.156-1.281 2.922-1.281 1.625 0 2.812 1.344v-4.813h2.563v13.36zm-6.844-5.047q0 1.547.438 2.234.61 1.016 1.718 1.016.891 0 1.5-.75.625-.766.625-2.25 0-1.672-.609-2.406-.594-.735-1.531-.735-.906 0-1.531.735-.61.718-.61 2.156zm14.959 1.969 2.547.421q-.485 1.407-1.547 2.141-1.063.734-2.657.734-2.515 0-3.734-1.656-.953-1.312-.953-3.328 0-2.406 1.25-3.766 1.266-1.359 3.187-1.359 2.157 0 3.407 1.422t1.187 4.375h-6.406q.031 1.14.61 1.781.593.625 1.484.625.593 0 1-.328.422-.328.625-1.062zm.156-2.594q-.031-1.11-.578-1.688-.547-.578-1.328-.578-.844 0-1.391.61-.547.609-.531 1.656h3.828zm9.73-4h2.391v1.422q.47-.735 1.25-1.188.797-.453 1.766-.453 1.688 0 2.86 1.328 1.171 1.313 1.171 3.672 0 2.422-1.187 3.766-1.188 1.343-2.86 1.343-.812 0-1.468-.312-.64-.328-1.36-1.094v4.875h-2.562v-13.36zm2.532 4.672q0 1.625.64 2.406.657.781 1.579.781.906 0 1.484-.719.594-.718.594-2.343 0-1.516-.61-2.25-.609-.75-1.515-.75-.938 0-1.563.734-.609.719-.609 2.14zm10.85-1.72-2.329-.421q.406-1.406 1.36-2.078.953-.672 2.843-.672 1.703 0 2.547.406.844.407 1.172 1.032.344.625.344 2.28l-.016 3q0 1.266.11 1.876.124.61.468 1.297h-2.531q-.11-.25-.25-.75-.063-.235-.094-.313-.656.64-1.406.969-.734.312-1.594.312-1.484 0-2.344-.812-.859-.813-.859-2.047 0-.828.39-1.469.391-.64 1.094-.968.704-.344 2.032-.61 1.797-.328 2.484-.625v-.25q0-.75-.36-1.062-.359-.313-1.374-.313-.688 0-1.078.281-.375.266-.61.938zm3.421 2.079q-.484.156-1.562.39-1.063.22-1.391.438-.5.36-.5.906 0 .532.406.938.406.39 1.016.39.703 0 1.328-.468.469-.344.61-.844.093-.328.093-1.25v-.5zm9.485-5.031v2.031h-1.75v3.906q0 1.188.047 1.39.047.188.219.313.187.125.437.125.36 0 1.032-.25l.218 2q-.89.375-2.015.375-.703 0-1.266-.234-.547-.234-.812-.594-.25-.375-.344-1-.094-.453-.094-1.812v-4.219h-1.172v-2.031h1.172v-1.922l2.578-1.5v3.422h1.75zm4.322-3.688v4.922q1.235-1.453 2.953-1.453.89 0 1.594.328.719.328 1.078.844.36.5.485 1.125.14.61.14 1.922v5.672h-2.562v-5.11q0-1.515-.157-1.922-.14-.421-.515-.656-.36-.25-.906-.25-.641 0-1.141.313-.5.312-.734.937-.235.625-.235 1.844v4.844h-2.562v-13.36h2.562z"/><path fill="#ffe599" fill-rule="evenodd" d="M262.484 72.195h251.217v114.582H262.484z"/><path stroke="#595959" stroke-linecap="butt" stroke-linejoin="round" d="M262.484 72.195h251.217v114.582H262.484z"/><path fill="#000" d="M352.056 112.046v4.922q1.235-1.453 2.953-1.453.891 0 1.594.328.719.328 1.078.844.36.5.485 1.125.14.61.14 1.922v5.672h-2.562v-5.11q0-1.515-.156-1.922-.141-.421-.516-.656-.36-.25-.906-.25-.64 0-1.14.313-.5.312-.735.937t-.235 1.844v4.844h-2.562v-13.36h2.562zm14.443 10.282 2.547.421q-.484 1.407-1.547 2.141-1.062.734-2.656.734-2.516 0-3.734-1.656-.954-1.312-.954-3.328 0-2.406 1.25-3.766 1.266-1.359 3.188-1.359 2.156 0 3.406 1.422t1.188 4.375h-6.407q.032 1.14.61 1.781.594.625 1.484.625.594 0 1-.328.422-.328.625-1.062zm.156-2.594q-.03-1.11-.578-1.688-.547-.578-1.328-.578-.844 0-1.39.61-.547.609-.532 1.656h3.828zm6.532-1.047-2.328-.422q.407-1.406 1.36-2.078.953-.672 2.843-.672 1.704 0 2.547.406.844.407 1.172 1.032.344.625.344 2.28l-.016 3q0 1.266.11 1.876.125.61.468 1.297h-2.53q-.11-.25-.25-.75-.063-.235-.095-.313-.656.64-1.406.969-.734.312-1.594.312-1.484 0-2.343-.812-.86-.813-.86-2.047 0-.828.39-1.469.392-.64 1.095-.968.703-.344 2.03-.61 1.798-.328 2.485-.625v-.25q0-.75-.36-1.062-.358-.313-1.374-.313-.688 0-1.078.281-.375.266-.61.938zm3.422 2.078q-.484.156-1.562.39-1.063.22-1.39.438-.5.36-.5.906 0 .532.405.938.407.39 1.016.39.703 0 1.328-.468.469-.344.61-.844.093-.328.093-1.25v-.5zm13.923 4.64h-2.39v-1.421q-.595.828-1.407 1.234-.797.406-1.61.406-1.671 0-2.859-1.343-1.187-1.344-1.187-3.75 0-2.453 1.156-3.735 1.156-1.281 2.922-1.281 1.625 0 2.812 1.344v-4.813h2.563v13.36zm-6.844-5.046q0 1.547.438 2.234.609 1.016 1.718 1.016.891 0 1.5-.75.625-.766.625-2.25 0-1.672-.609-2.406-.594-.735-1.531-.735-.907 0-1.532.735-.609.718-.609 2.156zm9.365 5.047v-13.36h2.562v13.36h-2.562zm10.777-3.078 2.547.421q-.485 1.407-1.547 2.141-1.063.734-2.656.734-2.516 0-3.735-1.656-.953-1.312-.953-3.328 0-2.406 1.25-3.766 1.266-1.359 3.188-1.359 2.156 0 3.406 1.422t1.187 4.375h-6.406q.031 1.14.61 1.781.593.625 1.484.625.594 0 1-.328.422-.328.625-1.062zm.156-2.594q-.031-1.11-.578-1.688-.547-.578-1.328-.578-.844 0-1.39.61-.548.609-.532 1.656h3.828zm3.72 2.906 2.562-.39q.172.75.672 1.14.5.39 1.406.39.985 0 1.485-.374.343-.25.343-.672 0-.297-.187-.485-.188-.187-.86-.343-3.093-.688-3.921-1.25-1.141-.782-1.141-2.172 0-1.266.984-2.11 1-.859 3.079-.859 1.984 0 2.953.656.968.64 1.328 1.907l-2.406.437q-.157-.562-.594-.86-.422-.296-1.235-.296-1 0-1.437.281-.297.203-.297.516 0 .265.25.468.344.25 2.39.72 2.048.452 2.86 1.14.797.672.797 1.89 0 1.344-1.11 2.297-1.109.953-3.28.953-1.985 0-3.141-.796-1.141-.813-1.5-2.188zm10.375 0 2.563-.39q.172.75.672 1.14.5.39 1.406.39.984 0 1.484-.374.344-.25.344-.672 0-.297-.187-.485-.188-.187-.86-.343-3.094-.688-3.922-1.25-1.14-.782-1.14-2.172 0-1.266.984-2.11 1-.859 3.078-.859 1.985 0 2.953.656.97.64 1.328 1.907l-2.406.437q-.156-.562-.594-.86-.421-.296-1.234-.296-1 0-1.437.281-.297.203-.297.516 0 .265.25.468.343.25 2.39.72 2.047.452 2.86 1.14.797.672.797 1.89 0 1.344-1.11 2.297-1.11.953-3.281.953-1.984 0-3.14-.796-1.141-.813-1.5-2.188zM353.82 140.593l-2.53.453q-.126-.75-.579-1.125-.453-.39-1.172-.39-.953 0-1.531.656-.563.656-.563 2.203 0 1.734.578 2.438.579.703 1.547.703.735 0 1.203-.407.47-.421.657-1.421l2.515.421q-.39 1.735-1.515 2.625-1.11.875-2.969.875-2.125 0-3.39-1.328-1.25-1.343-1.25-3.718 0-2.391 1.265-3.72 1.266-1.343 3.422-1.343 1.765 0 2.797.766 1.047.75 1.515 2.312zm1.345 1.844q0-1.281.625-2.469.625-1.203 1.781-1.828t2.578-.625q2.188 0 3.594 1.422 1.406 1.422 1.406 3.61 0 2.187-1.422 3.64-1.422 1.437-3.562 1.437-1.328 0-2.547-.593-1.203-.61-1.828-1.766-.625-1.172-.625-2.828zm2.625.125q0 1.453.672 2.219.687.75 1.687.75t1.672-.75q.688-.766.688-2.235 0-1.422-.688-2.187-.672-.766-1.672-.766-1 0-1.687.766-.672.765-.672 2.203zm18.24 4.844h-2.391v-1.422q-.594.828-1.406 1.234-.797.406-1.61.406-1.672 0-2.86-1.343-1.187-1.344-1.187-3.75 0-2.453 1.157-3.735 1.156-1.281 2.922-1.281 1.625 0 2.812 1.344v-4.813h2.563v13.36zm-6.844-5.047q0 1.547.437 2.234.61 1.016 1.719 1.016.89 0 1.5-.75.625-.766.625-2.25 0-1.672-.61-2.406-.593-.735-1.53-.735-.907 0-1.532.735-.61.718-.61 2.156zm14.958 1.969 2.547.421q-.484 1.407-1.547 2.141-1.062.734-2.656.734-2.516 0-3.734-1.656-.953-1.312-.953-3.328 0-2.406 1.25-3.766 1.265-1.359 3.187-1.359 2.156 0 3.406 1.422t1.188 4.375h-6.406q.03 1.14.609 1.781.594.625 1.484.625.594 0 1-.328.422-.328.625-1.062zm.157-2.594q-.032-1.11-.579-1.688-.546-.578-1.328-.578-.843 0-1.39.61-.547.609-.532 1.656h3.829zm9.73-4h2.391v1.422q.469-.735 1.25-1.188.797-.453 1.766-.453 1.687 0 2.86 1.328 1.17 1.313 1.17 3.672 0 2.422-1.187 3.766-1.187 1.343-2.859 1.343-.812 0-1.469-.312-.64-.328-1.36-1.094v4.875h-2.562v-13.36zm2.532 4.672q0 1.625.64 2.406.657.781 1.578.781.907 0 1.485-.719.594-.718.594-2.343 0-1.516-.61-2.25-.61-.75-1.515-.75-.938 0-1.563.734-.61.719-.61 2.14zm10.849-1.72-2.328-.421q.406-1.406 1.359-2.078.953-.672 2.844-.672 1.703 0 2.547.406.843.407 1.172 1.032.343.625.343 2.28l-.015 3q0 1.266.109 1.876.125.61.469 1.297h-2.531q-.11-.25-.25-.75-.063-.235-.094-.313-.656.64-1.406.969-.735.312-1.594.312-1.485 0-2.344-.812-.86-.813-.86-2.047 0-.828.391-1.469.39-.64 1.094-.968.703-.344 2.031-.61 1.797-.328 2.485-.625v-.25q0-.75-.36-1.062-.36-.313-1.375-.313-.687 0-1.078.281-.375.266-.61.938zm3.422 2.079q-.485.156-1.563.39-1.062.22-1.39.438-.5.36-.5.906 0 .532.406.938.406.39 1.015.39.704 0 1.329-.468.468-.344.609-.844.094-.328.094-1.25v-.5zm9.485-5.031v2.031h-1.75v3.906q0 1.188.047 1.39.047.188.218.313.188.125.438.125.36 0 1.031-.25l.219 2q-.89.375-2.016.375-.703 0-1.265-.234-.547-.234-.813-.594-.25-.375-.344-1-.093-.453-.093-1.812v-4.219h-1.172v-2.031h1.172v-1.922l2.578-1.5v3.422h1.75zm4.322-3.688v4.922q1.234-1.453 2.953-1.453.89 0 1.594.328.718.328 1.078.844.36.5.484 1.125.14.61.14 1.922v5.672h-2.562v-5.11q0-1.515-.156-1.922-.14-.421-.516-.656-.359-.25-.906-.25-.64 0-1.14.313-.5.312-.735.937-.234.625-.234 1.844v4.844h-2.563v-13.36h2.563z"/></g></svg>